<svg xmlns="http://www.w3.org/2000/svg" viewBox="0 0 32 32">
    <defs>
        <linearGradient id="g" x1="0%" y1="0%" x2="100%" y2="100%">
            <stop offset="0%" stop-color="#f97316"/>
            <stop offset="100%" stop-color="#db2777"/>
        </linearGradient>
    </defs>
    <rect width="32" height="32" rx="8" fill="url(#g)"/>
    <path d="M16 7c-1.5 0-3 1.2-3 2.8v2.2h6V9.8c0-1.6-1.5-2.8-3-2.8zm-5 5v11c0 1.1.9 2 2 2h6c1.1 0 2-.9 2-2V12h-10zm5 3c-.6 0-1-.4-1-1s.4-1 1-1 1 .4 1 1-.4 1-1 1zm-4 4c-.6 0-1-.4-1-1s.4-1 1-1 1 .4 1 1-.4 1-1 1z" fill="#ffffff"/>
</svg>
